<?xml version="1.0" standalone="no"?>
<svg viewBox="0 0 200 200" xmlns="http://www.w3.org/2000/svg">
  <path fill="#FF0066" d="M23.9,-33.4C30.7,-27.9,35.9,-20.6,43.6,-10.9C51.2,-1.1,61.5,11.1,62.5,24C63.4,37,55.1,50.7,43.1,61.4C31.2,72.1,15.6,79.8,-1.1,81.3C-17.7,82.8,-35.5,78,-41.6,65.4C-47.8,52.8,-42.3,32.4,-44.8,16.5C-47.3,0.6,-57.9,-10.8,-61.2,-25.8C-64.5,-40.8,-60.5,-59.3,-49.1,-63.3C-37.7,-67.2,-18.9,-56.6,-5.2,-49.5C8.5,-42.4,17.1,-38.8,23.9,-33.4Z" transform="translate(100 100)" />
</svg>
